<?xml version="1.0" encoding="utf-8"?>
<!-- Generator: Adobe Illustrator 23.0.3, SVG Export Plug-In . SVG Version: 6.00 Build 0)  -->
<svg version="1.1" id="Layer_1" xmlns="http://www.w3.org/2000/svg" xmlns:xlink="http://www.w3.org/1999/xlink" x="0px" y="0px"
	 viewBox="0 0 152.42 231.98" style="enable-background:new 0 0 152.42 231.98;" xml:space="preserve">
<style type="text/css">
	.st0{fill:#FAFBFB;}
	.st1{fill:#9A54A1;}
	.st2{fill:#5FC091;}
	.st3{fill:none;}
	.st4{fill:#9A54A1;stroke:#000000;stroke-miterlimit:10;}
	.st5{fill:#5FC091;stroke:#000000;stroke-miterlimit:10;}
</style>
<g>
	<path class="st3" d="M76.21,64.94c-22.32,0-40.42,18.09-40.42,40.42s18.09,40.42,40.42,40.42s40.42-18.09,40.42-40.42
		S98.53,64.94,76.21,64.94z"/>
	<g>
		<g>
			<path class="st2" d="M76.2,85.86c-6.39,0-10.84,6.16-10.91,11.77c-0.07,5.83,4.61,9.51,5.2,9.96c0.04-0.56,0.26-2.53,1.87-4.17
				c0.44-0.44,1.82-1.8,3.97-1.88c2.44-0.09,4.05,1.54,4.49,1.98c1.21,1.23,1.64,2.61,1.8,3.27c0.68-0.59,4.51-3.99,4.49-9.17
				C87.1,92.03,82.6,85.86,76.2,85.86z"/>
			<ellipse class="st0" cx="76.2" cy="94.79" rx="5.01" ry="5.26"/>
		</g>
		<path class="st2" d="M45.94,98.16c2.27-1.93,5.22-4.12,8.88-6.16c3.89-2.17,7.5-3.57,10.47-4.49c-0.76,1.09-3.93,5.83-3.06,12.32
			c0.74,5.52,3.94,8.96,5.01,10.03c-3.09-0.95-6.79-2.36-10.76-4.49C52.08,103,48.58,100.41,45.94,98.16z"/>
		<path class="st2" d="M106.48,98.16c-2.27-1.93-5.22-4.12-8.88-6.16c-3.89-2.17-7.5-3.57-10.47-4.49
			c0.76,1.09,3.93,5.83,3.06,12.32c-0.74,5.52-3.94,8.96-5.01,10.03c3.09-0.95,6.79-2.36,10.76-4.49
			C100.34,103,103.84,100.41,106.48,98.16z"/>
		<g>
			<path class="st1" d="M70.6,111.76v4.83c-4.6,3.91-4.58,10.87-0.63,14.49c3.75,3.43,10.22,3.11,13.89-1.25
				c0.77,1.46,1.53,2.92,2.3,4.39c-1.03,0.94-4.25,3.67-9.09,3.97c-0.53,0.03-8.57,0.39-12.85-6.27c-3.07-4.79-2.67-10.81,0.1-15.04
				C66.37,113.76,69.23,112.33,70.6,111.76z"/>
			<path class="st1" d="M74.12,107.59c0.01-1.43,1.17-2.54,2.44-2.51c1.1,0.02,2.11,0.89,2.31,2.09c0.02,1.81,0.02,3.65,0,5.52
				c-0.02,1.74-0.05,3.46-0.09,5.16c2.44,0.06,4.88,0.12,7.33,0.18c0.32,0.01,1.06,0.09,1.81,0.59c0.67,0.45,1.02,1.01,1.16,1.3
				c1.12,2.82,2.24,5.65,3.36,8.47c0.1,0.31,0.29,0.7,0.64,0.83c0.63,0.23,1.1-0.64,2.06-0.74c0.88-0.09,2.07,0.47,2.41,1.54
				c0.26,0.82-0.04,1.78-0.74,2.43c-1.78,0.87-3.55,1.74-5.33,2.62c-0.26,0.06-0.72,0.11-1.12-0.12c-0.56-0.32-0.71-1-0.77-1.22
				c-0.29-1.14-1.58-4.37-3.62-9.23c-0.09-0.37-0.28-0.89-0.72-1.31c-0.61-0.59-1.42-0.73-2.67-0.75c-1.82-0.03-6.47,0.15-7.49,0.09
				c-0.11-0.01-0.34-0.03-0.52-0.19c-0.27-0.23-0.36-0.62-0.24-1.01C74.26,116.74,74.19,112.16,74.12,107.59z"/>
		</g>
		<g>
			<path class="st1" d="M54.76,78.36c0.53,1.1,1.05,2.19,1.58,3.29c0.21,0.41,0.67,1.2,1.58,1.83c1.21,0.85,2.45,0.89,2.91,0.89
				c0.97-0.06,1.94-0.13,2.91-0.19c-0.02-0.46-0.11-1.17-0.44-1.96c-0.11-0.26-0.6-1.36-1.77-2.28c-0.99-0.78-1.94-1.01-2.97-1.27
				C57.71,78.47,56.4,78.25,54.76,78.36z"/>
			<path class="st1" d="M76.31,70.97c-0.72,1.09-1.43,2.17-2.15,3.26c-0.27,0.42-0.73,1.27-0.82,2.42
				c-0.12,1.53,0.52,2.62,0.77,3.01c0.58,0.8,1.17,1.6,1.75,2.39c0.41-0.28,1.01-0.76,1.55-1.51c0.18-0.24,0.92-1.3,1.12-2.84
				c0.17-1.3-0.13-2.25-0.46-3.29C77.81,73.57,77.31,72.31,76.31,70.97z"/>
			<path class="st1" d="M97.53,78.36c-0.53,1.1-1.05,2.19-1.58,3.29c-0.21,0.41-0.67,1.2-1.58,1.83c-1.21,0.85-2.45,0.89-2.91,0.89
				c-0.97-0.06-1.94-0.13-2.91-0.19c0.02-0.46,0.11-1.17,0.44-1.96c0.11-0.26,0.6-1.36,1.77-2.28c0.99-0.78,1.94-1.01,2.97-1.27
				C94.59,78.47,95.9,78.25,97.53,78.36z"/>
		</g>
	</g>
</g>
</svg>
